<svg xmlns="http://www.w3.org/2000/svg" xmlns:xlink="http://www.w3.org/1999/xlink" width="120" zoomAndPan="magnify" viewBox="0 0 90 30.000001" height="40" preserveAspectRatio="xMidYMid meet" version="1.2"><defs><clipPath id="e66fbe5997"><path d="M 1.453125 0 L 88.546875 0 L 88.546875 29.03125 L 1.453125 29.03125 Z M 1.453125 0 "/></clipPath><clipPath id="b46b1ea8fa"><path d="M 4.355469 2.902344 L 85.644531 2.902344 L 85.644531 26.128906 L 4.355469 26.128906 Z M 4.355469 2.902344 "/></clipPath><clipPath id="46427df3ac"><path d="M 5.804688 2.902344 L 84.195312 2.902344 C 84.996094 2.902344 85.644531 3.554688 85.644531 4.355469 L 85.644531 24.675781 C 85.644531 25.480469 84.996094 26.128906 84.195312 26.128906 L 5.804688 26.128906 C 5.003906 26.128906 4.355469 25.480469 4.355469 24.675781 L 4.355469 4.355469 C 4.355469 3.554688 5.003906 2.902344 5.804688 2.902344 Z M 5.804688 2.902344 "/></clipPath></defs><g id="9f474b3b07"><g clip-rule="nonzero" clip-path="url(#e66fbe5997)"><path style=" stroke:none;fill-rule:nonzero;fill:#ffffff;fill-opacity:1;" d="M 1.453125 0 L 88.546875 0 L 88.546875 29.03125 L 1.453125 29.03125 Z M 1.453125 0 "/><path style=" stroke:none;fill-rule:nonzero;fill:#ffffff;fill-opacity:1;" d="M 1.453125 0 L 88.546875 0 L 88.546875 29.03125 L 1.453125 29.03125 Z M 1.453125 0 "/></g><g clip-rule="nonzero" clip-path="url(#b46b1ea8fa)"><g clip-rule="nonzero" clip-path="url(#46427df3ac)"><path style=" stroke:none;fill-rule:nonzero;fill:#ffbd59;fill-opacity:1;" d="M 4.355469 2.902344 L 85.644531 2.902344 L 85.644531 26.128906 L 4.355469 26.128906 Z M 4.355469 2.902344 "/></g></g><g style="fill:#000000;fill-opacity:1;"><g transform="translate(27.769613, 11.286506)"><path style="stroke:none" d="M 3.59375 -6.296875 L 3.59375 -5.84375 L 2.703125 -5.84375 L 2.703125 -7.03125 L 8.109375 -7.03125 L 8.109375 -5.84375 L 7.15625 -5.84375 L 7.15625 -6.296875 Z M 3.984375 -2.796875 L 4.859375 -2.796875 L 4.859375 -3.125 L 3.984375 -3.125 Z M 3.984375 -4.0625 L 3.984375 -3.71875 L 4.859375 -3.71875 L 4.859375 -4.0625 Z M 6.765625 -4.0625 L 5.859375 -4.0625 L 5.859375 -3.71875 L 6.765625 -3.71875 Z M 6.765625 -2.796875 L 6.765625 -3.125 L 5.859375 -3.125 L 5.859375 -2.796875 Z M 4.859375 -0.546875 L 4.859375 -1.109375 L 2.625 -1.109375 L 2.625 -1.84375 L 4.859375 -1.84375 L 4.859375 -2.171875 L 3.109375 -2.171875 L 3.109375 -4.6875 L 4.859375 -4.6875 L 4.859375 -5 L 2.9375 -5 L 2.9375 -5.703125 L 4.859375 -5.703125 L 4.859375 -6.140625 L 5.859375 -6.140625 L 5.859375 -5.703125 L 7.828125 -5.703125 L 7.828125 -5 L 5.859375 -5 L 5.859375 -4.6875 L 7.671875 -4.6875 L 7.671875 -2.171875 L 5.859375 -2.171875 L 5.859375 -1.84375 L 8.203125 -1.84375 L 8.203125 -1.109375 L 5.859375 -1.109375 L 5.859375 -0.546875 Z M 2.515625 -5.703125 L 1.671875 -5.0625 C 1.597656 -5.207031 1.488281 -5.363281 1.34375 -5.53125 C 1.207031 -5.695312 1.050781 -5.863281 0.875 -6.03125 C 0.707031 -6.195312 0.546875 -6.347656 0.390625 -6.484375 L 1.171875 -7.078125 C 1.328125 -6.953125 1.488281 -6.804688 1.65625 -6.640625 C 1.832031 -6.484375 2 -6.320312 2.15625 -6.15625 C 2.3125 -6 2.429688 -5.847656 2.515625 -5.703125 Z M 2.296875 -3.953125 L 2.296875 -1.203125 C 2.460938 -0.921875 2.695312 -0.710938 3 -0.578125 C 3.300781 -0.441406 3.671875 -0.367188 4.109375 -0.359375 C 4.367188 -0.335938 4.675781 -0.328125 5.03125 -0.328125 C 5.394531 -0.328125 5.773438 -0.332031 6.171875 -0.34375 C 6.578125 -0.351562 6.96875 -0.363281 7.34375 -0.375 C 7.71875 -0.382812 8.054688 -0.40625 8.359375 -0.4375 C 8.304688 -0.3125 8.242188 -0.148438 8.171875 0.046875 C 8.109375 0.253906 8.066406 0.425781 8.046875 0.5625 C 7.773438 0.570312 7.46875 0.582031 7.125 0.59375 C 6.78125 0.601562 6.425781 0.609375 6.0625 0.609375 C 5.695312 0.617188 5.34375 0.617188 5 0.609375 C 4.664062 0.609375 4.363281 0.601562 4.09375 0.59375 C 3.582031 0.570312 3.144531 0.488281 2.78125 0.34375 C 2.425781 0.207031 2.125 -0.0234375 1.875 -0.359375 C 1.695312 -0.191406 1.515625 -0.0234375 1.328125 0.140625 C 1.148438 0.304688 0.953125 0.484375 0.734375 0.671875 L 0.25 -0.34375 C 0.414062 -0.457031 0.59375 -0.582031 0.78125 -0.71875 C 0.96875 -0.851562 1.144531 -0.992188 1.3125 -1.140625 L 1.3125 -3.015625 L 0.359375 -3.015625 L 0.359375 -3.953125 Z M 2.296875 -3.953125 "/></g></g><g style="fill:#000000;fill-opacity:1;"><g transform="translate(36.373633, 11.286506)"><path style="stroke:none" d="M 6.375 -0.40625 L 6.375 -1.15625 L 2.328125 -1.15625 L 2.328125 -0.40625 Z M 3.03125 -3.90625 L 3.03125 -3.3125 L 5.59375 -3.3125 L 5.59375 -3.90625 Z M 6.578125 -2.5625 L 4.765625 -2.5625 C 4.722656 -2.46875 4.679688 -2.375 4.640625 -2.28125 C 4.609375 -2.195312 4.570312 -2.113281 4.53125 -2.03125 L 7.390625 -2.03125 L 7.390625 0.765625 L 6.375 0.765625 L 6.375 0.484375 L 2.328125 0.484375 L 2.328125 0.765625 L 1.359375 0.765625 L 1.359375 -2.03125 L 3.515625 -2.03125 C 3.546875 -2.113281 3.570312 -2.195312 3.59375 -2.28125 C 3.613281 -2.375 3.632812 -2.46875 3.65625 -2.5625 L 2.078125 -2.5625 L 2.078125 -4.671875 L 6.578125 -4.671875 Z M 6.796875 -5.953125 L 8 -5.953125 L 8 -4.125 L 7.015625 -4.125 L 7.015625 -5.09375 L 1.640625 -5.09375 L 1.640625 -4.125 L 0.703125 -4.125 L 0.703125 -5.953125 L 1.75 -5.953125 C 1.675781 -6.097656 1.585938 -6.242188 1.484375 -6.390625 C 1.378906 -6.535156 1.273438 -6.671875 1.171875 -6.796875 L 2.0625 -7.1875 C 2.207031 -7.019531 2.351562 -6.832031 2.5 -6.625 C 2.644531 -6.414062 2.753906 -6.234375 2.828125 -6.078125 L 2.5625 -5.953125 L 3.875 -5.953125 C 3.820312 -6.109375 3.742188 -6.285156 3.640625 -6.484375 C 3.535156 -6.679688 3.429688 -6.859375 3.328125 -7.015625 L 4.21875 -7.3125 C 4.34375 -7.144531 4.46875 -6.953125 4.59375 -6.734375 C 4.71875 -6.515625 4.8125 -6.332031 4.875 -6.1875 L 4.265625 -5.953125 L 5.6875 -5.953125 C 5.820312 -6.140625 5.960938 -6.351562 6.109375 -6.59375 C 6.253906 -6.832031 6.367188 -7.050781 6.453125 -7.25 L 7.546875 -6.90625 C 7.421875 -6.75 7.296875 -6.585938 7.171875 -6.421875 C 7.046875 -6.253906 6.921875 -6.097656 6.796875 -5.953125 Z M 6.796875 -5.953125 "/></g></g><g style="fill:#000000;fill-opacity:1;"><g transform="translate(44.977652, 11.286506)"><path style="stroke:none" d="M 2.71875 -4.703125 L 5.953125 -4.703125 C 5.617188 -4.960938 5.304688 -5.226562 5.015625 -5.5 C 4.734375 -5.769531 4.492188 -6.035156 4.296875 -6.296875 C 3.910156 -5.753906 3.382812 -5.222656 2.71875 -4.703125 Z M 2.296875 -3.765625 L 2.296875 -4.40625 C 2.066406 -4.238281 1.828125 -4.082031 1.578125 -3.9375 C 1.335938 -3.789062 1.09375 -3.65625 0.84375 -3.53125 C 0.78125 -3.664062 0.691406 -3.816406 0.578125 -3.984375 C 0.460938 -4.148438 0.347656 -4.289062 0.234375 -4.40625 C 0.734375 -4.613281 1.207031 -4.878906 1.65625 -5.203125 C 2.101562 -5.523438 2.503906 -5.867188 2.859375 -6.234375 C 3.222656 -6.597656 3.507812 -6.945312 3.71875 -7.28125 L 4.78125 -7.28125 C 5.09375 -6.863281 5.441406 -6.476562 5.828125 -6.125 C 6.222656 -5.769531 6.640625 -5.457031 7.078125 -5.1875 C 7.523438 -4.925781 7.972656 -4.710938 8.421875 -4.546875 C 8.296875 -4.421875 8.175781 -4.269531 8.0625 -4.09375 C 7.957031 -3.925781 7.859375 -3.765625 7.765625 -3.609375 C 7.523438 -3.722656 7.28125 -3.847656 7.03125 -3.984375 C 6.789062 -4.128906 6.550781 -4.285156 6.3125 -4.453125 L 6.3125 -3.765625 Z M 0.78125 -2.109375 L 0.78125 -3.0625 L 7.890625 -3.0625 L 7.890625 -2.109375 L 4.03125 -2.109375 C 3.90625 -1.859375 3.773438 -1.601562 3.640625 -1.34375 C 3.503906 -1.082031 3.375 -0.828125 3.25 -0.578125 C 3.65625 -0.597656 4.078125 -0.613281 4.515625 -0.625 C 4.960938 -0.644531 5.40625 -0.664062 5.84375 -0.6875 C 5.707031 -0.832031 5.566406 -0.984375 5.421875 -1.140625 C 5.273438 -1.296875 5.132812 -1.4375 5 -1.5625 L 5.890625 -2.03125 C 6.148438 -1.8125 6.40625 -1.566406 6.65625 -1.296875 C 6.90625 -1.035156 7.132812 -0.773438 7.34375 -0.515625 C 7.5625 -0.265625 7.738281 -0.03125 7.875 0.1875 L 6.90625 0.75 C 6.875 0.675781 6.828125 0.59375 6.765625 0.5 C 6.703125 0.40625 6.632812 0.3125 6.5625 0.21875 C 5.894531 0.257812 5.222656 0.296875 4.546875 0.328125 C 3.867188 0.359375 3.222656 0.382812 2.609375 0.40625 C 1.992188 0.4375 1.441406 0.460938 0.953125 0.484375 L 0.8125 -0.515625 L 2.125 -0.546875 C 2.238281 -0.785156 2.351562 -1.039062 2.46875 -1.3125 C 2.582031 -1.59375 2.679688 -1.859375 2.765625 -2.109375 Z M 0.78125 -2.109375 "/></g></g><g style="fill:#000000;fill-opacity:1;"><g transform="translate(53.581671, 11.286506)"><path style="stroke:none" d="M 4.09375 -2.421875 L 3.46875 -1.59375 C 3.375 -1.71875 3.257812 -1.859375 3.125 -2.015625 C 2.988281 -2.171875 2.847656 -2.332031 2.703125 -2.5 L 2.703125 0.75 L 1.6875 0.75 L 1.6875 -2.21875 C 1.507812 -2.0625 1.332031 -1.910156 1.15625 -1.765625 C 0.976562 -1.628906 0.800781 -1.503906 0.625 -1.390625 C 0.59375 -1.484375 0.546875 -1.59375 0.484375 -1.71875 C 0.429688 -1.84375 0.375 -1.960938 0.3125 -2.078125 C 0.25 -2.203125 0.191406 -2.300781 0.140625 -2.375 C 0.609375 -2.625 1.054688 -2.960938 1.484375 -3.390625 C 1.910156 -3.816406 2.265625 -4.28125 2.546875 -4.78125 L 0.46875 -4.78125 L 0.46875 -5.703125 L 1.6875 -5.703125 L 1.6875 -7.28125 L 2.703125 -7.28125 L 2.703125 -5.703125 L 3.09375 -5.703125 L 3.265625 -5.75 L 3.84375 -5.375 C 3.582031 -4.726562 3.242188 -4.113281 2.828125 -3.53125 C 2.972656 -3.414062 3.128906 -3.28125 3.296875 -3.125 C 3.472656 -2.976562 3.632812 -2.835938 3.78125 -2.703125 C 3.925781 -2.578125 4.03125 -2.484375 4.09375 -2.421875 Z M 6.5625 -0.5 L 8.40625 -0.5 L 8.40625 0.5 L 3.53125 0.5 L 3.53125 -0.5 L 5.515625 -0.5 L 5.515625 -3.65625 L 3.875 -3.65625 L 3.875 -4.640625 L 5.515625 -4.640625 L 5.515625 -7.21875 L 6.5625 -7.21875 L 6.5625 -4.640625 L 8.203125 -4.640625 L 8.203125 -3.65625 L 6.5625 -3.65625 Z M 6.5625 -0.5 "/></g></g><g style="fill:#000000;fill-opacity:1;"><g transform="translate(19.039535, 22.590191)"><path style="stroke:none" d="M 3.5 -2.9375 L 2.921875 -2.25 C 2.816406 -2.507812 2.671875 -2.832031 2.484375 -3.21875 L 2.484375 0.734375 L 1.484375 0.734375 L 1.484375 -2.59375 C 1.367188 -2.238281 1.242188 -1.90625 1.109375 -1.59375 C 0.972656 -1.289062 0.832031 -1.023438 0.6875 -0.796875 C 0.632812 -0.953125 0.554688 -1.128906 0.453125 -1.328125 C 0.359375 -1.523438 0.273438 -1.691406 0.203125 -1.828125 C 0.367188 -2.054688 0.53125 -2.332031 0.6875 -2.65625 C 0.84375 -2.976562 0.984375 -3.320312 1.109375 -3.6875 C 1.242188 -4.050781 1.347656 -4.40625 1.421875 -4.75 L 0.375 -4.75 L 0.375 -5.6875 L 1.484375 -5.6875 L 1.484375 -7.296875 L 2.484375 -7.296875 L 2.484375 -5.6875 L 3.46875 -5.6875 L 3.46875 -4.75 L 2.484375 -4.75 L 2.484375 -4.5 C 2.546875 -4.414062 2.625 -4.300781 2.71875 -4.15625 C 2.820312 -4.007812 2.925781 -3.851562 3.03125 -3.6875 C 3.132812 -3.519531 3.226562 -3.367188 3.3125 -3.234375 C 3.40625 -3.097656 3.46875 -3 3.5 -2.9375 Z M 8.25 -2.78125 L 6.90625 -2.78125 C 7.09375 -2.34375 7.328125 -1.914062 7.609375 -1.5 C 7.898438 -1.09375 8.195312 -0.765625 8.5 -0.515625 C 8.382812 -0.421875 8.25 -0.289062 8.09375 -0.125 C 7.945312 0.03125 7.832031 0.171875 7.75 0.296875 C 7.507812 0.0351562 7.273438 -0.28125 7.046875 -0.65625 C 6.816406 -1.039062 6.613281 -1.453125 6.4375 -1.890625 L 6.4375 0.734375 L 5.421875 0.734375 L 5.421875 -1.8125 C 5.191406 -1.363281 4.925781 -0.953125 4.625 -0.578125 C 4.320312 -0.210938 4 0.0976562 3.65625 0.359375 C 3.582031 0.242188 3.476562 0.109375 3.34375 -0.046875 C 3.207031 -0.210938 3.082031 -0.34375 2.96875 -0.4375 C 3.375 -0.675781 3.75 -1.003906 4.09375 -1.421875 C 4.445312 -1.847656 4.734375 -2.300781 4.953125 -2.78125 L 3.53125 -2.78125 L 3.53125 -3.703125 L 5.421875 -3.703125 L 5.421875 -4.875 L 4.625 -4.875 C 4.550781 -4.6875 4.472656 -4.503906 4.390625 -4.328125 C 4.304688 -4.148438 4.210938 -3.988281 4.109375 -3.84375 C 4.054688 -3.894531 3.976562 -3.953125 3.875 -4.015625 C 3.78125 -4.078125 3.679688 -4.140625 3.578125 -4.203125 C 3.472656 -4.265625 3.382812 -4.3125 3.3125 -4.34375 C 3.53125 -4.644531 3.703125 -5.019531 3.828125 -5.46875 C 3.960938 -5.914062 4.0625 -6.382812 4.125 -6.875 L 5.0625 -6.703125 C 5.039062 -6.546875 5.015625 -6.394531 4.984375 -6.25 C 4.953125 -6.101562 4.921875 -5.953125 4.890625 -5.796875 L 5.421875 -5.796875 L 5.421875 -7.28125 L 6.4375 -7.28125 L 6.4375 -5.796875 L 8.046875 -5.796875 L 8.046875 -4.875 L 6.4375 -4.875 L 6.4375 -3.703125 L 8.25 -3.703125 Z M 8.25 -2.78125 "/></g></g><g style="fill:#000000;fill-opacity:1;"><g transform="translate(27.643554, 22.590191)"><path style="stroke:none" d="M 3.109375 -2.859375 L 3.109375 -0.96875 C 3.367188 -1.007812 3.632812 -1.054688 3.90625 -1.109375 C 4.175781 -1.160156 4.441406 -1.210938 4.703125 -1.265625 L 4.78125 -0.359375 C 4.3125 -0.253906 3.835938 -0.148438 3.359375 -0.046875 C 2.878906 0.0546875 2.414062 0.15625 1.96875 0.25 C 1.53125 0.34375 1.125 0.429688 0.75 0.515625 L 0.46875 -0.53125 C 0.6875 -0.5625 0.929688 -0.597656 1.203125 -0.640625 C 1.484375 -0.679688 1.78125 -0.726562 2.09375 -0.78125 L 2.09375 -2.859375 L 0.796875 -2.859375 L 0.796875 -3.84375 L 4.484375 -3.84375 L 4.484375 -2.859375 Z M 8.15625 -4.828125 L 5.828125 -4.828125 C 5.867188 -4.203125 5.929688 -3.613281 6.015625 -3.0625 C 6.109375 -2.519531 6.210938 -2.039062 6.328125 -1.625 C 6.441406 -1.21875 6.570312 -0.898438 6.71875 -0.671875 C 6.863281 -0.441406 7.007812 -0.328125 7.15625 -0.328125 C 7.25 -0.328125 7.320312 -0.445312 7.375 -0.6875 C 7.425781 -0.9375 7.460938 -1.332031 7.484375 -1.875 C 7.597656 -1.757812 7.738281 -1.644531 7.90625 -1.53125 C 8.082031 -1.414062 8.242188 -1.332031 8.390625 -1.28125 C 8.335938 -0.738281 8.257812 -0.320312 8.15625 -0.03125 C 8.050781 0.257812 7.910156 0.460938 7.734375 0.578125 C 7.566406 0.691406 7.34375 0.75 7.0625 0.75 C 6.695312 0.75 6.378906 0.601562 6.109375 0.3125 C 5.835938 0.0195312 5.609375 -0.378906 5.421875 -0.890625 C 5.242188 -1.410156 5.097656 -2.003906 4.984375 -2.671875 C 4.878906 -3.347656 4.800781 -4.066406 4.75 -4.828125 L 0.46875 -4.828125 L 0.46875 -5.828125 L 4.6875 -5.828125 C 4.675781 -6.296875 4.671875 -6.769531 4.671875 -7.25 L 5.765625 -7.25 C 5.765625 -7.007812 5.765625 -6.769531 5.765625 -6.53125 C 5.765625 -6.300781 5.769531 -6.066406 5.78125 -5.828125 L 7.140625 -5.828125 C 7.023438 -5.972656 6.867188 -6.128906 6.671875 -6.296875 C 6.484375 -6.460938 6.300781 -6.609375 6.125 -6.734375 L 6.8125 -7.296875 C 6.945312 -7.203125 7.082031 -7.097656 7.21875 -6.984375 C 7.363281 -6.867188 7.5 -6.753906 7.625 -6.640625 C 7.757812 -6.535156 7.863281 -6.4375 7.9375 -6.34375 L 7.359375 -5.828125 L 8.15625 -5.828125 Z M 8.15625 -4.828125 "/></g></g><g style="fill:#000000;fill-opacity:1;"><g transform="translate(36.247574, 22.590191)"><path style="stroke:none" d="M 2.71875 -4.703125 L 5.953125 -4.703125 C 5.617188 -4.960938 5.304688 -5.226562 5.015625 -5.5 C 4.734375 -5.769531 4.492188 -6.035156 4.296875 -6.296875 C 3.910156 -5.753906 3.382812 -5.222656 2.71875 -4.703125 Z M 2.296875 -3.765625 L 2.296875 -4.40625 C 2.066406 -4.238281 1.828125 -4.082031 1.578125 -3.9375 C 1.335938 -3.789062 1.09375 -3.65625 0.84375 -3.53125 C 0.78125 -3.664062 0.691406 -3.816406 0.578125 -3.984375 C 0.460938 -4.148438 0.347656 -4.289062 0.234375 -4.40625 C 0.734375 -4.613281 1.207031 -4.878906 1.65625 -5.203125 C 2.101562 -5.523438 2.503906 -5.867188 2.859375 -6.234375 C 3.222656 -6.597656 3.507812 -6.945312 3.71875 -7.28125 L 4.78125 -7.28125 C 5.09375 -6.863281 5.441406 -6.476562 5.828125 -6.125 C 6.222656 -5.769531 6.640625 -5.457031 7.078125 -5.1875 C 7.523438 -4.925781 7.972656 -4.710938 8.421875 -4.546875 C 8.296875 -4.421875 8.175781 -4.269531 8.0625 -4.09375 C 7.957031 -3.925781 7.859375 -3.765625 7.765625 -3.609375 C 7.523438 -3.722656 7.28125 -3.847656 7.03125 -3.984375 C 6.789062 -4.128906 6.550781 -4.285156 6.3125 -4.453125 L 6.3125 -3.765625 Z M 0.78125 -2.109375 L 0.78125 -3.0625 L 7.890625 -3.0625 L 7.890625 -2.109375 L 4.03125 -2.109375 C 3.90625 -1.859375 3.773438 -1.601562 3.640625 -1.34375 C 3.503906 -1.082031 3.375 -0.828125 3.25 -0.578125 C 3.65625 -0.597656 4.078125 -0.613281 4.515625 -0.625 C 4.960938 -0.644531 5.40625 -0.664062 5.84375 -0.6875 C 5.707031 -0.832031 5.566406 -0.984375 5.421875 -1.140625 C 5.273438 -1.296875 5.132812 -1.4375 5 -1.5625 L 5.890625 -2.03125 C 6.148438 -1.8125 6.40625 -1.566406 6.65625 -1.296875 C 6.90625 -1.035156 7.132812 -0.773438 7.34375 -0.515625 C 7.5625 -0.265625 7.738281 -0.03125 7.875 0.1875 L 6.90625 0.75 C 6.875 0.675781 6.828125 0.59375 6.765625 0.5 C 6.703125 0.40625 6.632812 0.3125 6.5625 0.21875 C 5.894531 0.257812 5.222656 0.296875 4.546875 0.328125 C 3.867188 0.359375 3.222656 0.382812 2.609375 0.40625 C 1.992188 0.4375 1.441406 0.460938 0.953125 0.484375 L 0.8125 -0.515625 L 2.125 -0.546875 C 2.238281 -0.785156 2.351562 -1.039062 2.46875 -1.3125 C 2.582031 -1.59375 2.679688 -1.859375 2.765625 -2.109375 Z M 0.78125 -2.109375 "/></g></g><g style="fill:#000000;fill-opacity:1;"><g transform="translate(44.851593, 22.590191)"><path style="stroke:none" d="M 4.09375 -2.421875 L 3.46875 -1.59375 C 3.375 -1.71875 3.257812 -1.859375 3.125 -2.015625 C 2.988281 -2.171875 2.847656 -2.332031 2.703125 -2.5 L 2.703125 0.75 L 1.6875 0.75 L 1.6875 -2.21875 C 1.507812 -2.0625 1.332031 -1.910156 1.15625 -1.765625 C 0.976562 -1.628906 0.800781 -1.503906 0.625 -1.390625 C 0.59375 -1.484375 0.546875 -1.59375 0.484375 -1.71875 C 0.429688 -1.84375 0.375 -1.960938 0.3125 -2.078125 C 0.25 -2.203125 0.191406 -2.300781 0.140625 -2.375 C 0.609375 -2.625 1.054688 -2.960938 1.484375 -3.390625 C 1.910156 -3.816406 2.265625 -4.28125 2.546875 -4.78125 L 0.46875 -4.78125 L 0.46875 -5.703125 L 1.6875 -5.703125 L 1.6875 -7.28125 L 2.703125 -7.28125 L 2.703125 -5.703125 L 3.09375 -5.703125 L 3.265625 -5.75 L 3.84375 -5.375 C 3.582031 -4.726562 3.242188 -4.113281 2.828125 -3.53125 C 2.972656 -3.414062 3.128906 -3.28125 3.296875 -3.125 C 3.472656 -2.976562 3.632812 -2.835938 3.78125 -2.703125 C 3.925781 -2.578125 4.03125 -2.484375 4.09375 -2.421875 Z M 6.5625 -0.5 L 8.40625 -0.5 L 8.40625 0.5 L 3.53125 0.5 L 3.53125 -0.5 L 5.515625 -0.5 L 5.515625 -3.65625 L 3.875 -3.65625 L 3.875 -4.640625 L 5.515625 -4.640625 L 5.515625 -7.21875 L 6.5625 -7.21875 L 6.5625 -4.640625 L 8.203125 -4.640625 L 8.203125 -3.65625 L 6.5625 -3.65625 Z M 6.5625 -0.5 "/></g></g><g style="fill:#000000;fill-opacity:1;"><g transform="translate(53.455613, 22.590191)"><path style="stroke:none" d="M 2.6875 0.125 C 2.257812 0.125 1.84375 0.046875 1.4375 -0.109375 C 1.03125 -0.273438 0.671875 -0.507812 0.359375 -0.8125 L 1.09375 -1.6875 C 1.320312 -1.476562 1.578125 -1.304688 1.859375 -1.171875 C 2.148438 -1.046875 2.4375 -0.984375 2.71875 -0.984375 C 3.050781 -0.984375 3.300781 -1.046875 3.46875 -1.171875 C 3.644531 -1.304688 3.734375 -1.488281 3.734375 -1.71875 C 3.734375 -1.875 3.691406 -2 3.609375 -2.09375 C 3.523438 -2.1875 3.410156 -2.269531 3.265625 -2.34375 C 3.128906 -2.414062 2.960938 -2.492188 2.765625 -2.578125 L 1.921875 -2.9375 C 1.703125 -3.03125 1.492188 -3.148438 1.296875 -3.296875 C 1.097656 -3.441406 0.9375 -3.625 0.8125 -3.84375 C 0.6875 -4.070312 0.625 -4.34375 0.625 -4.65625 C 0.625 -5 0.71875 -5.304688 0.90625 -5.578125 C 1.101562 -5.859375 1.363281 -6.078125 1.6875 -6.234375 C 2.019531 -6.398438 2.398438 -6.484375 2.828125 -6.484375 C 3.203125 -6.484375 3.5625 -6.410156 3.90625 -6.265625 C 4.257812 -6.128906 4.566406 -5.929688 4.828125 -5.671875 L 4.1875 -4.875 C 3.976562 -5.039062 3.765625 -5.164062 3.546875 -5.25 C 3.335938 -5.34375 3.097656 -5.390625 2.828125 -5.390625 C 2.546875 -5.390625 2.320312 -5.332031 2.15625 -5.21875 C 1.988281 -5.101562 1.90625 -4.9375 1.90625 -4.71875 C 1.90625 -4.570312 1.953125 -4.445312 2.046875 -4.34375 C 2.140625 -4.25 2.257812 -4.164062 2.40625 -4.09375 C 2.5625 -4.03125 2.726562 -3.960938 2.90625 -3.890625 L 3.75 -3.53125 C 4.132812 -3.375 4.441406 -3.160156 4.671875 -2.890625 C 4.910156 -2.628906 5.03125 -2.269531 5.03125 -1.8125 C 5.03125 -1.46875 4.9375 -1.144531 4.75 -0.84375 C 4.5625 -0.550781 4.289062 -0.316406 3.9375 -0.140625 C 3.59375 0.0351562 3.175781 0.125 2.6875 0.125 Z M 2.6875 0.125 "/></g></g><g style="fill:#000000;fill-opacity:1;"><g transform="translate(58.824513, 22.590191)"><path style="stroke:none" d="M 3.234375 0.125 C 2.710938 0.125 2.265625 0.0234375 1.890625 -0.171875 C 1.523438 -0.378906 1.242188 -0.703125 1.046875 -1.140625 C 0.847656 -1.585938 0.75 -2.160156 0.75 -2.859375 L 0.75 -6.375 L 2.015625 -6.375 L 2.015625 -2.75 C 2.015625 -2.09375 2.125 -1.632812 2.34375 -1.375 C 2.5625 -1.113281 2.859375 -0.984375 3.234375 -0.984375 C 3.484375 -0.984375 3.703125 -1.035156 3.890625 -1.140625 C 4.078125 -1.253906 4.21875 -1.441406 4.3125 -1.703125 C 4.414062 -1.960938 4.46875 -2.3125 4.46875 -2.75 L 4.46875 -6.375 L 5.6875 -6.375 L 5.6875 -2.859375 C 5.6875 -1.804688 5.472656 -1.046875 5.046875 -0.578125 C 4.617188 -0.109375 4.015625 0.125 3.234375 0.125 Z M 3.234375 0.125 "/></g></g><g style="fill:#000000;fill-opacity:1;"><g transform="translate(65.260304, 22.590191)"><path style="stroke:none" d="M 3.390625 0.125 C 2.847656 0.125 2.351562 0 1.90625 -0.25 C 1.46875 -0.507812 1.117188 -0.878906 0.859375 -1.359375 C 0.597656 -1.847656 0.46875 -2.445312 0.46875 -3.15625 C 0.46875 -3.6875 0.546875 -4.15625 0.703125 -4.5625 C 0.859375 -4.976562 1.070312 -5.328125 1.34375 -5.609375 C 1.613281 -5.898438 1.925781 -6.117188 2.28125 -6.265625 C 2.644531 -6.410156 3.023438 -6.484375 3.421875 -6.484375 C 3.828125 -6.484375 4.1875 -6.398438 4.5 -6.234375 C 4.820312 -6.078125 5.085938 -5.890625 5.296875 -5.671875 L 4.625 -4.859375 C 4.457031 -5.015625 4.28125 -5.140625 4.09375 -5.234375 C 3.90625 -5.335938 3.691406 -5.390625 3.453125 -5.390625 C 3.128906 -5.390625 2.835938 -5.300781 2.578125 -5.125 C 2.328125 -4.957031 2.128906 -4.707031 1.984375 -4.375 C 1.835938 -4.050781 1.765625 -3.660156 1.765625 -3.203125 C 1.765625 -2.503906 1.914062 -1.957031 2.21875 -1.5625 C 2.519531 -1.175781 2.921875 -0.984375 3.421875 -0.984375 C 3.691406 -0.984375 3.9375 -1.039062 4.15625 -1.15625 C 4.375 -1.269531 4.570312 -1.421875 4.75 -1.609375 L 5.421875 -0.8125 C 5.148438 -0.507812 4.84375 -0.273438 4.5 -0.109375 C 4.164062 0.046875 3.796875 0.125 3.390625 0.125 Z M 3.390625 0.125 "/></g></g></g></svg>